<?xml version="1.0" encoding="UTF-8"?>
<svg width="21px" height="24px" viewBox="0 0 21 24" version="1.1" xmlns="http://www.w3.org/2000/svg" xmlns:xlink="http://www.w3.org/1999/xlink">
    <!-- Generator: Sketch 53 (72520) - https://sketchapp.com -->
    <title>健康数据</title>
    <desc>Created with Sketch.</desc>
    <g id="页面-1" stroke="none" stroke-width="1" fill="none" fill-rule="evenodd">
        <g id="设计规范" transform="translate(-1023.000000, -226.000000)" fill="#FFFFFF" fill-rule="nonzero">
            <path d="M1042.51515,250 L1024.39394,250 C1023.62448,250 1023,249.375515 1023,248.606061 L1023,231.272727 C1023,230.503273 1023.62448,229.878788 1024.39394,229.878788 L1027.18182,229.878788 C1027.18182,230.648242 1027.8063,231.272727 1028.57576,231.272727 L1038.33333,231.272727 C1039.10279,231.272727 1039.72727,230.648242 1039.72727,229.878788 L1042.51515,229.878788 C1043.28461,229.878788 1043.90909,230.503273 1043.90909,231.272727 L1043.90909,248.606061 C1043.90909,249.375515 1043.28461,250 1042.51515,250 Z M1039.72727,237.454545 L1027.18182,237.454545 C1026.41236,237.454545 1025.78788,238.07903 1025.78788,238.848485 C1025.78788,239.617939 1026.41236,240.242424 1027.18182,240.242424 L1039.72727,240.242424 C1040.49673,240.242424 1041.12121,239.617939 1041.12121,238.848485 C1041.12121,238.07903 1040.49673,237.454545 1039.72727,237.454545 Z M1039.72727,243.030303 L1027.18182,243.030303 C1026.41236,243.030303 1025.78788,243.654788 1025.78788,244.424242 C1025.78788,245.193697 1026.41236,245.818182 1027.18182,245.818182 L1039.72727,245.818182 C1040.49673,245.818182 1041.12121,245.193697 1041.12121,244.424242 C1041.12121,243.654788 1040.49673,243.030303 1039.72727,243.030303 Z M1036.93939,228.787879 L1029.9697,228.787879 C1029.20024,228.787879 1028.57576,228.163394 1028.57576,227.393939 C1028.57576,226.624485 1029.20024,226 1029.9697,226 L1036.93939,226 C1037.70885,226 1038.33333,226.624485 1038.33333,227.393939 C1038.33333,228.163394 1037.70885,228.787879 1036.93939,228.787879 Z" id="健康数据"></path>
        </g>
    </g>
</svg>