<?xml version="1.0" encoding="UTF-8"?>
<svg width="26px" height="25px" viewBox="0 0 26 25" version="1.1" xmlns="http://www.w3.org/2000/svg" xmlns:xlink="http://www.w3.org/1999/xlink">
    <!-- Generator: Sketch 53 (72520) - https://sketchapp.com -->
    <title>家庭医生</title>
    <desc>Created with Sketch.</desc>
    <g id="页面-1" stroke="none" stroke-width="1" fill="none" fill-rule="evenodd">
        <g id="设计规范" transform="translate(-1021.000000, -97.000000)" fill="#FFFFFF" fill-rule="nonzero">
            <path d="M1039.7172,112.443714 C1044.03052,113.56032 1047,116.261332 1047,121.490196 C1047,121.7033 1021,121.7033 1021,121.490196 C1021,116.330371 1023.89159,113.632086 1028.11266,112.488774 C1027.99577,112.378852 1027.88149,112.26538 1027.76996,112.148627 C1026.24676,110.554128 1025.3622,109.471673 1025.24842,107.235532 C1025.00984,106.993476 1024.85936,106.655365 1024.85936,106.278833 L1024.85936,98.3255475 C1024.85936,97.5955359 1025.42826,97 1026.12563,97 L1041.65864,97 C1042.35601,97 1042.92492,97.5955359 1042.92492,98.3255475 L1042.92492,106.278833 C1042.92492,106.655365 1042.77443,106.993476 1042.53586,107.235532 C1042.42208,109.471673 1041.53752,110.554128 1040.01432,112.148627 C1039.91691,112.249449 1039.81787,112.347879 1039.7172,112.443714 Z M1035.20307,99.5490196 L1033.03243,99.5490196 L1033.03243,102.897016 L1029.35936,102.897016 L1029.35936,105.367271 L1033.03243,105.367271 L1033.03243,108.72549 L1035.20307,108.72549 L1035.20307,105.367271 L1038.85936,105.367271 L1038.85936,102.897016 L1035.20307,102.897016 L1035.20307,99.5490196 Z" id="家庭医生"></path>
        </g>
    </g>
</svg>