<?xml version="1.0" encoding="UTF-8"?>
<svg width="22px" height="22px" viewBox="0 0 22 22" version="1.1" xmlns="http://www.w3.org/2000/svg" xmlns:xlink="http://www.w3.org/1999/xlink">
    <!-- Generator: Sketch 53 (72520) - https://sketchapp.com -->
    <title>首页</title>
    <desc>Created with Sketch.</desc>
    <g id="页面-1" stroke="none" stroke-width="1" fill="none" fill-rule="evenodd">
        <g id="设计规范" transform="translate(-1023.000000, -57.000000)" fill="#FFFFFF" fill-rule="nonzero">
            <path d="M1030.425,57 L1025.475,57 C1024.11375,57 1023,58.11375 1023,59.475 L1023,64.425 C1023,65.78625 1024.11375,66.9 1025.475,66.9 L1032.9,66.9 L1032.9,59.475 C1032.9,58.11375 1031.78625,57 1030.425,57 Z M1037.575,57 L1042.525,57 C1043.88625,57 1045,58.11375 1045,59.475 L1045,64.425 C1045,65.78625 1043.88625,66.9 1042.525,66.9 L1035.1,66.9 L1035.1,59.475 C1035.1,58.11375 1036.21375,57 1037.575,57 Z M1023,71.575 L1023,76.525 C1023,77.88625 1024.11375,79 1025.475,79 L1030.425,79 C1031.78625,79 1032.9,77.88625 1032.9,76.525 L1032.9,69.1 L1025.475,69.1 C1024.11375,69.1 1023,70.21375 1023,71.575 Z M1045,71.575 L1045,76.525 C1045,77.88625 1043.88625,79 1042.525,79 L1037.575,79 C1036.21375,79 1035.1,77.88625 1035.1,76.525 L1035.1,69.1 L1042.525,69.1 C1043.88625,69.1 1045,70.21375 1045,71.575 Z" id="首页"></path>
        </g>
    </g>
</svg>