<?xml version="1.0" encoding="UTF-8"?>
<svg width="27px" height="27px" viewBox="0 0 27 27" version="1.1" xmlns="http://www.w3.org/2000/svg" xmlns:xlink="http://www.w3.org/1999/xlink">
    <!-- Generator: Sketch 53 (72520) - https://sketchapp.com -->
    <title>医院</title>
    <desc>Created with Sketch.</desc>
    <g id="页面-1" stroke="none" stroke-width="1" fill="none" fill-rule="evenodd">
        <g id="设计规范" transform="translate(-1020.000000, -140.000000)" fill="#FFFFFF" fill-rule="nonzero">
            <path d="M1031.64154,150.196001 L1028.6213,147.175757 C1027.72687,146.281328 1027.72687,144.817718 1028.6213,143.923289 L1031.87377,140.670821 C1032.76819,139.776393 1034.23181,139.776393 1035.12623,140.670821 L1038.3787,143.923289 C1039.27313,144.817718 1039.27313,146.281328 1038.3787,147.175757 L1035.35846,150.196001 L1035.35846,145.601553 L1031.64154,145.601553 L1031.64154,150.196001 Z M1031.64154,156.803999 L1031.64154,161.398447 L1035.35846,161.398447 L1035.35846,156.803999 L1038.3787,159.824243 C1039.27313,160.718672 1039.27313,162.182282 1038.3787,163.076711 L1035.12623,166.329179 C1034.23181,167.223607 1032.76819,167.223607 1031.87377,166.329179 L1028.6213,163.076711 C1027.72687,162.182282 1027.72687,160.718672 1028.6213,159.824243 L1031.64154,156.803999 Z M1036.804,155.358458 L1041.39845,155.358458 L1041.39845,151.641542 L1036.804,151.641542 L1039.82424,148.621298 C1040.71867,147.72687 1042.18228,147.72687 1043.07671,148.621298 L1046.32918,151.873766 C1047.22361,152.768195 1047.22361,154.231805 1046.32918,155.126234 L1043.07671,158.378702 C1042.18228,159.27313 1040.71867,159.27313 1039.82424,158.378702 L1036.804,155.358458 Z M1030.196,155.358458 L1027.17576,158.378702 C1026.28133,159.27313 1024.81772,159.27313 1023.92329,158.378702 L1020.67082,155.126234 C1019.77639,154.231805 1019.77639,152.768195 1020.67082,151.873766 L1023.92329,148.621298 C1024.81772,147.72687 1026.28133,147.72687 1027.17576,148.621298 L1030.196,151.641542 L1025.60155,151.641542 L1025.60155,155.358458 L1030.196,155.358458 Z" id="医院"></path>
        </g>
    </g>
</svg>