<?xml version="1.0" encoding="UTF-8"?>
<svg width="26px" height="23px" viewBox="0 0 26 23" version="1.1" xmlns="http://www.w3.org/2000/svg" xmlns:xlink="http://www.w3.org/1999/xlink">
    <!-- Generator: Sketch 53 (72520) - https://sketchapp.com -->
    <title>健康小屋</title>
    <desc>Created with Sketch.</desc>
    <g id="页面-1" stroke="none" stroke-width="1" fill="none" fill-rule="evenodd">
        <g id="设计规范" transform="translate(-1021.000000, -268.000000)" fill="#FFFFFF" fill-rule="nonzero">
            <path d="M1032.30013,268.515634 C1032.64645,268.171878 1033.25251,268 1033.85857,268 C1034.55122,268 1035.20057,268.171878 1035.5036,268.558604 C1038.40405,271.265684 1044.63784,277.195476 1046.5859,279.12911 C1046.97551,279.472866 1046.75906,279.902555 1046.41274,279.902555 L1043.20926,279.902555 L1043.20926,289.36716 C1043.20926,290.398429 1042.12701,291 1041.3045,291 L1026.54252,291 C1025.41698,291 1024.46459,290.398429 1024.46459,289.32419 L1024.46459,279.902555 L1021.7806,279.902555 C1021.43427,279.902555 1020.56847,279.64474 1021.26111,278.957227 C1023.33904,276.89469 1029.65942,271.136775 1032.30013,268.515634 Z M1033.88569,278.288597 C1033.28497,277.339457 1032.34097,276.74 1031.26826,276.74 C1029.46609,276.74 1027.96429,278.438461 1027.96429,280.586515 C1027.96429,281.835383 1028.47919,282.934388 1029.29446,283.633754 C1029.29446,283.633754 1031.99771,286.381265 1033.24206,287.480272 C1033.62824,287.879909 1034.18605,287.879909 1034.57223,287.480272 C1035.81658,286.381265 1038.51983,283.633754 1038.51983,283.633754 C1039.3351,282.934388 1039.85,281.835383 1039.85,280.586515 C1039.76419,278.488415 1038.30529,276.74 1036.50312,276.74 C1035.4304,276.74 1034.48641,277.339457 1033.88569,278.288597 Z M1033.45332,281.643098 L1033.45332,279.416364 L1034.57706,279.416364 L1034.57706,281.643098 L1036.82455,281.643098 L1036.82455,282.756465 L1034.57706,282.756465 L1034.57706,284.9832 L1033.45332,284.9832 L1033.45332,282.756465 L1031.20584,282.756465 L1031.20584,281.643098 L1033.45332,281.643098 Z" id="健康小屋"></path>
        </g>
    </g>
</svg>