<?xml version="1.0" encoding="UTF-8"?>
<svg width="40px" height="40px" viewBox="0 0 40 40" version="1.1" xmlns="http://www.w3.org/2000/svg" xmlns:xlink="http://www.w3.org/1999/xlink">
    <!-- Generator: Sketch 53 (72520) - https://sketchapp.com -->
    <title>健康小屋2</title>
    <desc>Created with Sketch.</desc>
    <g id="页面-1" stroke="none" stroke-width="1" fill="none" fill-rule="evenodd">
        <g id="设计规范" transform="translate(-1258.000000, -192.000000)">
            <g id="健康小屋2" transform="translate(1258.000000, 192.000000)">
                <circle id="Oval" fill="#0076FF" cx="20" cy="20" r="20"></circle>
                <path d="M18.3001261,8.51563428 C18.6464462,8.17187809 19.2525083,8 19.8585705,8 C20.5512187,8 21.2005658,8.17187809 21.5036009,8.55860384 C24.4040486,11.2656838 30.6378422,17.195476 32.5858996,19.1291095 C32.9755127,19.4728657 32.7590637,19.902555 32.4127436,19.902555 L29.2092608,19.902555 L29.2092608,29.3671601 C29.2092608,30.3984286 28.1270075,31 27.3044964,31 L12.5425221,31 C11.4169766,31 10.4645912,30.3984286 10.4645912,29.3241896 L10.4645912,19.902555 L7.78059649,19.902555 C7.43427456,19.902555 6.56846987,19.6447399 7.26111364,18.9572275 C9.33904487,16.8946904 15.6594205,11.1367754 18.3001261,8.51563428 Z M19.8856884,18.2885965 C19.2849661,17.3394569 18.340975,16.74 17.2682568,16.74 C15.4660909,16.74 13.9642857,18.4384615 13.9642857,20.5865148 C13.9642857,21.8353834 14.4791903,22.934388 15.2944556,23.6337538 C15.2944556,23.6337538 17.9977052,26.3812649 19.2420579,27.4802716 C19.6282359,27.8799095 20.1860499,27.8799095 20.5722278,27.4802716 C21.8165805,26.3812649 24.5198301,23.6337538 24.5198301,23.6337538 C25.335095,22.934388 25.85,21.8353834 25.85,20.5865148 C25.7641851,18.4884154 24.305285,16.74 22.5031176,16.74 C21.4304025,16.74 20.4864106,17.3394569 19.8856884,18.2885965 Z M19.4533247,21.6430982 L19.4533247,19.4163636 L20.5770649,19.4163636 L20.5770649,21.6430982 L22.8245455,21.6430982 L22.8245455,22.7564655 L20.5770649,22.7564655 L20.5770649,24.9832 L19.4533247,24.9832 L19.4533247,22.7564655 L17.2058442,22.7564655 L17.2058442,21.6430982 L19.4533247,21.6430982 Z" id="健康小屋" fill="#FFFFFF" fill-rule="nonzero"></path>
            </g>
        </g>
    </g>
</svg>