<?xml version="1.0" encoding="UTF-8"?>
<svg width="24px" height="24px" viewBox="0 0 24 24" version="1.1" xmlns="http://www.w3.org/2000/svg" xmlns:xlink="http://www.w3.org/1999/xlink">
    <!-- Generator: Sketch 53 (72520) - https://sketchapp.com -->
    <title>双向转诊</title>
    <desc>Created with Sketch.</desc>
    <g id="页面-1" stroke="none" stroke-width="1" fill="none" fill-rule="evenodd">
        <g id="设计规范" transform="translate(-1022.000000, -184.000000)" fill="#FFFFFF" fill-rule="nonzero">
            <path d="M1040.5359,193.5 C1040.81204,193.021707 1040.64817,192.410117 1040.16987,192.133975 L1034.97372,189.133975 C1034.49543,188.857832 1033.88384,189.021707 1033.6077,189.5 C1033.33155,189.978293 1033.49543,190.589883 1033.97372,190.866025 L1036.80385,192.5 L1028.5359,192.5 C1027.98361,192.5 1027.5359,192.947715 1027.5359,193.5 C1027.5359,194.052285 1027.98361,194.5 1028.5359,194.5 L1039.5359,194.5 C1040.08818,194.5 1040.5359,194.052285 1040.5359,193.5 Z M1031.26795,200 L1039.5359,200 C1040.08818,200 1040.5359,199.552285 1040.5359,199 C1040.5359,198.447715 1040.08818,198 1039.5359,198 L1028.5359,198 C1027.98361,198 1027.5359,198.447715 1027.5359,199 C1027.25976,199.478293 1027.42363,200.089883 1027.90192,200.366025 L1033.09808,203.366025 C1033.57637,203.642168 1034.18796,203.478293 1034.4641,203 C1034.74024,202.521707 1034.57637,201.910117 1034.09808,201.633975 L1031.26795,200 Z M1034,208 C1027.385,208 1022,202.615 1022,196 C1022,189.385 1027.385,184 1034,184 C1040.615,184 1046,189.385 1046,196 C1046,202.615 1040.615,208 1034,208 Z" id="双向转诊"></path>
        </g>
    </g>
</svg>