<?xml version="1.0" encoding="UTF-8"?>
<svg width="24px" height="24px" viewBox="0 0 24 24" version="1.1" xmlns="http://www.w3.org/2000/svg" xmlns:xlink="http://www.w3.org/1999/xlink">
    <!-- Generator: Sketch 53 (72520) - https://sketchapp.com -->
    <title>设置</title>
    <desc>Created with Sketch.</desc>
    <g id="页面-1" stroke="none" stroke-width="1" fill="none" fill-rule="evenodd">
        <g id="设计规范" transform="translate(-1022.000000, -313.000000)" fill="#FFFFFF" fill-rule="nonzero">
            <path d="M1044.05,325 C1044.05,323.65 1044.8,322.45 1046,322 C1045.4,319.9 1044.2,317.95 1042.7,316.45 C1041.65,317.2 1040.15,317.35 1038.95,316.75 C1037.75,316 1037.15,314.8 1037.3,313.45 C1036.25,313.15 1035.05,313 1034,313 C1032.8,313 1031.75,313.15 1030.7,313.45 C1030.85,314.65 1030.25,316 1029.05,316.75 C1027.85,317.5 1026.35,317.35 1025.3,316.45 C1023.8,317.95 1022.6,319.9 1022,322 C1023.2,322.45 1023.95,323.65 1023.95,325 C1023.95,326.35 1023.2,327.55 1022,328 C1022.6,330.1 1023.8,332.05 1025.3,333.55 C1026.35,332.8 1027.85,332.65 1029.05,333.25 C1030.25,334 1030.85,335.2 1030.7,336.55 C1031.75,336.85 1032.95,337 1034,337 C1035.2,337 1036.25,336.85 1037.3,336.55 C1037.15,335.35 1037.75,334 1038.95,333.25 C1040.15,332.5 1041.65,332.65 1042.7,333.55 C1044.2,332.05 1045.4,330.1 1046,328 C1044.8,327.55 1044.05,326.35 1044.05,325 L1044.05,325 Z M1034,329.95 C1031.15,329.95 1028.9,327.7 1028.9,325 C1028.9,322.3 1031.15,320.05 1034,320.05 C1036.85,320.05 1039.1,322.3 1039.1,325 C1039.1,327.7 1036.85,329.95 1034,329.95 Z M1034,328 C1035.65685,328 1037,326.656854 1037,325 C1037,323.343146 1035.65685,322 1034,322 C1032.34315,322 1031,323.343146 1031,325 C1031,326.656854 1032.34315,328 1034,328 Z" id="设置"></path>
        </g>
    </g>
</svg>